<svg width="113" height="116" viewBox="0 0 113 116" fill="none" xmlns="http://www.w3.org/2000/svg">
<path fill-rule="evenodd" clip-rule="evenodd" d="M62.3502 79.78C59.7802 74.53 49.9402 49.15 47.7602 42.26C45.5802 35.37 61.3902 29.76 64.6402 38.13C67.8902 46.5 74.3902 69.91 74.7802 74.03C75.1702 78.15 65.9202 91.08 62.3502 79.78Z" fill="#DBA87E"/>
<path fill-rule="evenodd" clip-rule="evenodd" d="M72.75 104.69C72.38 102.03 70.69 96.04 68.17 91.55C65.65 87.06 62.76 84.63 62.3 78.11C61.68 76.14 74.85 72.46 75.21 74.58C75.97 79.06 77.18 83.23 78.28 87.08C79.39 90.94 81.63 96.76 85.5 99.47C89.37 102.18 74.15 111.25 72.74 104.69H72.75Z" fill="#DBA87E"/>
<path fill-rule="evenodd" clip-rule="evenodd" d="M71.5303 104.16C71.1603 101.5 68.3803 95 66.6103 90.9C64.8403 86.81 55.4403 69.48 57.2503 69.68C60.3803 70.02 70.3403 66.89 73.3503 65.24C74.1703 64.79 79.1303 82.83 80.0803 86.15C81.0303 89.47 83.2603 95.02 86.4003 98.09C89.5403 101.16 72.9503 110.71 71.5303 104.15V104.16Z" fill="#FFF9E8"/>
<path fill-rule="evenodd" clip-rule="evenodd" d="M75.9501 71.95C71.1001 73.75 65.6001 75.16 59.5001 76.44C57.9901 73.23 56.8901 70.59 57.0301 69.88C57.3501 69.83 57.6701 69.77 58.0001 69.71C61.6801 69.6 70.2501 66.88 73.1901 65.33L73.4001 65.25C73.8001 65.39 74.8101 68.31 75.9401 71.96L75.9501 71.95Z" fill="#F4BF26"/>
<path fill-rule="evenodd" clip-rule="evenodd" d="M74.61 67.8699C69.84 69.6999 64.09 71.3599 57.71 72.3899C57.04 70.6999 56.79 69.6399 57.24 69.6899C60.37 70.0299 70.33 66.8999 73.34 65.2499C73.55 65.1399 74.01 66.1799 74.61 67.8699Z" fill="#166A1F"/>
<path fill-rule="evenodd" clip-rule="evenodd" d="M105.851 98.9803L107.521 98.4302C108.191 98.2102 108.931 98.5803 109.161 99.2503L110.601 103.45C110.831 104.12 110.471 104.85 109.791 105.07L108.121 105.62C107.451 105.84 106.711 105.47 106.481 104.8L105.041 100.6C104.811 99.9303 105.171 99.2003 105.851 98.9803Z" fill="#F4BF26"/>
<path fill-rule="evenodd" clip-rule="evenodd" d="M99.6904 101.01L101.36 100.46C102.03 100.24 102.77 100.61 103 101.28L104.44 105.48C104.67 106.15 104.31 106.88 103.63 107.1L101.96 107.65C101.29 107.87 100.55 107.5 100.32 106.83L98.8804 102.63C98.6504 101.96 99.0104 101.23 99.6904 101.01Z" fill="#F4BF26"/>
<path fill-rule="evenodd" clip-rule="evenodd" d="M89.1606 104.47L91.8506 103.59C92.9306 103.23 94.1306 103.83 94.5006 104.91L95.4306 107.62C95.8006 108.7 95.2206 109.87 94.1306 110.23L91.4406 111.11C90.3606 111.47 89.1606 110.87 88.7906 109.79L87.8606 107.08C87.4906 106 88.0706 104.83 89.1606 104.47Z" fill="#F4BF26"/>
<path fill-rule="evenodd" clip-rule="evenodd" d="M81.8506 106.87L83.5206 106.32C84.1906 106.1 84.9306 106.47 85.1606 107.14L86.6006 111.34C86.8306 112.01 86.4706 112.74 85.7906 112.96L84.1206 113.51C83.4506 113.73 82.7106 113.36 82.4806 112.69L81.0406 108.49C80.8106 107.82 81.1706 107.09 81.8506 106.87Z" fill="#F4BF26"/>
<path fill-rule="evenodd" clip-rule="evenodd" d="M75.6907 108.89L77.3607 108.34C78.0307 108.12 78.7707 108.49 79.0007 109.16L80.4407 113.36C80.6707 114.03 80.3107 114.76 79.6307 114.98L77.9607 115.53C77.2907 115.75 76.5507 115.38 76.3107 114.71L74.8707 110.51C74.6407 109.84 75.0007 109.11 75.6807 108.89H75.6907Z" fill="#F4BF26"/>
<path fill-rule="evenodd" clip-rule="evenodd" d="M70.3604 99.19C69.3304 99.53 69.7804 103.83 70.6404 107.91C71.5004 111.99 74.0704 113.94 76.4004 113.68C78.7204 113.42 83.0104 111.68 85.4804 110.41C87.9504 109.14 96.2004 107.61 99.0404 106.68C101.83 105.77 114.95 103.64 112.48 96.74C111.5 94.01 104.33 95.47 102.58 95.4C100.82 95.33 93.1504 94.23 90.4804 93.67C87.8104 93.1 84.8504 92.21 83.5704 93.53C82.2904 94.84 80.1004 100.33 76.8204 101.41C73.5404 102.49 71.4004 98.86 70.3704 99.19H70.3604Z" fill="#F4BF26"/>
<path fill-rule="evenodd" clip-rule="evenodd" d="M69.7504 98.29C68.7104 98.63 69.1704 102.99 70.0304 107.13C70.9004 111.26 73.5104 113.23 75.8604 112.97C78.9804 112.62 94.9304 107.14 98.7904 105.88C101.62 104.95 114.89 102.88 112.21 96.04C111.25 93.6 104.15 94.5301 102.37 94.4501C100.59 94.3801 92.8204 93.27 90.1104 92.69C87.4104 92.11 84.4004 91.2201 83.1104 92.5501C81.8104 93.8801 79.5904 99.44 76.2704 100.53C72.9504 101.62 70.7804 97.94 69.7304 98.28L69.7504 98.29Z" fill="#01567D"/>
<path d="M83.4604 105.24C84.2804 102.44 85.5605 99.0201 87.8305 96.5801L89.4005 96.8601C87.1605 98.9301 86.3204 102.85 85.5704 105.3C84.8704 105.3 84.1704 105.29 83.4604 105.24Z" fill="#F4BF26"/>
<path d="M79.5405 104.46C80.6405 101.48 83.0005 97.6601 84.9105 96.0701L86.6505 96.3801C84.5605 97.8901 82.4605 101.92 81.5205 105.1C80.8305 104.93 80.1605 104.72 79.5405 104.46Z" fill="#F4BF26"/>
<path fill-rule="evenodd" clip-rule="evenodd" d="M81.5605 94.8901C81.1705 94.4001 81.0705 93.7401 81.3905 93.0001C81.7705 92.1301 82.0005 91.6601 83.5805 92.2001C83.4105 92.2901 83.2505 92.4101 83.1205 92.5501C82.7005 92.9801 82.1805 93.8601 81.5605 94.8901Z" fill="#01567D"/>
<path d="M96.4704 95.0901C96.4204 95.3601 96.1804 95.5101 95.9304 95.4401C95.9304 95.4401 95.9104 95.4401 95.9004 95.4401C95.7004 95.3701 95.5604 95.1701 95.5304 94.9601C95.4904 94.7601 95.4304 94.5501 95.3304 94.3201C95.2204 94.0701 95.0704 93.8001 94.8504 93.5001C94.6704 93.2601 94.6904 92.9201 94.8904 92.7501C95.0904 92.5801 95.3904 92.6301 95.5704 92.8701C95.7404 93.1101 95.8904 93.3401 96.0104 93.5601C96.1504 93.3101 96.3304 93.0701 96.5404 92.8401C96.7204 92.6401 97.0204 92.6701 97.2204 92.8901C97.4104 93.1101 97.4304 93.4601 97.2504 93.6501C97.0504 93.8701 96.8904 94.1101 96.7704 94.3401C96.6304 94.6101 96.5404 94.8801 96.4904 95.1001L96.4704 95.0901ZM88.6904 91.9401V91.8101C88.7004 91.6901 88.7604 91.5701 88.8504 91.4901C89.0504 91.3201 89.3504 91.3701 89.5304 91.6101C89.7004 91.8501 89.8504 92.0801 89.9704 92.3001C90.1104 92.0501 90.2904 91.8101 90.5004 91.5801C90.6804 91.3801 90.9804 91.4101 91.1804 91.6301C91.3704 91.8501 91.3904 92.2001 91.2104 92.3901C91.0104 92.6101 90.8504 92.8501 90.7304 93.0801C90.5904 93.3501 90.5004 93.6201 90.4504 93.8401C90.4004 94.1101 90.1604 94.2601 89.9104 94.1901C89.9104 94.1901 89.8904 94.1901 89.8804 94.1901C89.6804 94.1201 89.5404 93.9201 89.5104 93.7101C89.4704 93.5101 89.4104 93.3001 89.3104 93.0701C89.2004 92.8201 89.0504 92.5501 88.8304 92.2501C88.7604 92.1601 88.7204 92.0501 88.7104 91.9401H88.6904ZM88.6904 91.8001C88.6904 91.8001 88.6904 91.7201 88.6904 91.6701V91.8001ZM93.1304 94.4201C93.1704 94.2001 93.2604 93.9401 93.4104 93.6601C93.5304 93.4301 93.6904 93.1901 93.8904 92.9701C94.0704 92.7701 94.0604 92.4301 93.8604 92.2101C93.6704 91.9801 93.3604 91.9601 93.1804 92.1601C92.9704 92.3901 92.8004 92.6301 92.6504 92.8801C92.5304 92.6601 92.3904 92.4301 92.2104 92.1901C92.0304 91.9501 91.7304 91.8901 91.5304 92.0701C91.3304 92.2401 91.3204 92.5801 91.4904 92.8201C91.7104 93.1201 91.8604 93.3901 91.9704 93.6401C92.0704 93.8701 92.1304 94.0801 92.1704 94.2801C92.2004 94.4901 92.3404 94.6901 92.5404 94.7601C92.5404 94.7601 92.5604 94.7601 92.5704 94.7601C92.8204 94.8301 93.0604 94.6801 93.1104 94.4101L93.1304 94.4201ZM99.3004 95.7701C99.2504 96.0401 99.0104 96.1901 98.7604 96.1201C98.7604 96.1201 98.7404 96.1201 98.7304 96.1201C98.5304 96.0501 98.3904 95.8501 98.3604 95.6401C98.3204 95.4401 98.2604 95.2301 98.1604 95.0001C98.0504 94.7501 97.9004 94.4801 97.6804 94.1801C97.5004 93.9401 97.5204 93.6001 97.7204 93.4301C97.9204 93.2601 98.2204 93.3101 98.4004 93.5501C98.5704 93.7901 98.7204 94.0201 98.8404 94.2401C98.9804 93.9901 99.1604 93.7501 99.3704 93.5201C99.5504 93.3201 99.8504 93.3501 100.05 93.5701C100.24 93.7901 100.26 94.1401 100.08 94.3301C99.8804 94.5501 99.7204 94.7901 99.6004 95.0201C99.4604 95.2901 99.3704 95.5601 99.3204 95.7801L99.3004 95.7701ZM88.6904 91.6701V91.8001C88.6804 91.9101 88.6404 92.0101 88.5704 92.0901C88.3604 92.3201 88.2004 92.5501 88.0804 92.7801C87.9504 93.0301 87.8604 93.2601 87.8204 93.4701C87.7704 93.7401 87.5304 93.8901 87.2804 93.8201C87.2804 93.8201 87.2604 93.8201 87.2504 93.8201C87.0504 93.7501 86.9104 93.5501 86.8804 93.3401C86.8404 93.1401 86.7804 92.9301 86.6804 92.7001C86.5704 92.4501 86.4204 92.1801 86.2004 91.8801C86.0204 91.6401 86.0404 91.3001 86.2404 91.1301C86.4404 90.9601 86.7404 91.0101 86.9204 91.2501C87.1004 91.5001 87.2504 91.7301 87.3704 91.9601C87.5104 91.7401 87.6804 91.5101 87.8804 91.2901C88.0604 91.0901 88.3604 91.1201 88.5604 91.3401C88.6504 91.4401 88.7004 91.5601 88.7104 91.6901L88.6904 91.6701ZM88.6904 91.8201C88.6904 91.8201 88.6904 91.9001 88.6904 91.9501V91.8201ZM84.9104 93.3501C84.9504 93.1401 85.0704 92.8501 85.2604 92.5601C85.4204 92.3201 85.6104 92.0801 85.8404 91.9101C86.0504 91.7501 86.0904 91.4201 85.9304 91.1701C85.7704 90.9201 85.4704 90.8401 85.2604 90.9901C84.9404 91.2301 84.6704 91.5401 84.4704 91.8601C84.2104 92.2601 84.0404 92.6801 83.9804 93.0001C83.9204 93.2801 84.0904 93.5901 84.3404 93.6801C84.6004 93.7801 84.8504 93.6201 84.9104 93.3401V93.3501Z" fill="#F4BF26"/>
<path d="M87.5005 105.12C88.3905 102.14 88.7905 99.5301 90.7405 97.0901L92.0205 97.2701C90.1505 99.5401 90.2605 102.56 89.6105 105.17C88.9105 105.17 88.2105 105.16 87.5005 105.11V105.12Z" fill="#F4BF26"/>
<path fill-rule="evenodd" clip-rule="evenodd" d="M54.7999 52.52C47.6199 49.11 19.5099 31.06 11.3499 25.57C3.19989 20.08 13.3499 2.33 23.8999 8.49C34.4499 14.65 59.2499 31.82 63.1599 35.87C67.0699 39.92 68.1599 61.52 54.7999 52.51V52.52Z" fill="#DBA87E"/>
<path fill-rule="evenodd" clip-rule="evenodd" d="M0 25.19L16.79 0L66.6 35.45L49.24 56.33L0 25.19Z" fill="#01567D"/>
</svg>
