<svg width="3400" height="14670" viewBox="0 0 3400 14670" fill="none" xmlns="http://www.w3.org/2000/svg">
<g clip-path="url(#clip0_833_81676)">
<path fill-rule="evenodd" clip-rule="evenodd" d="M981.59 12574.2C955.624 12292.2 954.164 10958.8 977.356 10602.4C1000.55 10246 1863.72 10157.2 1864.44 10597C1865.16 11036.8 1742.81 12237.3 1685.08 12439.9C1627.35 12642.5 943.298 13158.6 981.59 12574.2Z" fill="#DBA87E"/>
<path fill-rule="evenodd" clip-rule="evenodd" d="M1106.5 13869.3C1138.46 13736.2 1168.91 13426.5 1131.01 13180C1093.1 12933.5 998.631 12782.5 1098.63 12461.3C1105.53 12358.8 1812.75 12332 1790.43 12438.9C1743.24 12664.6 1723.66 12880.6 1704.76 13079.8C1686.15 13279.5 1685.54 13587.3 1822.25 13763.1C1958.96 13938.9 1051.31 14203.2 1106.02 13869.2L1106.5 13869.3Z" fill="#DBA87E"/>
<path fill-rule="evenodd" clip-rule="evenodd" d="M1042.55 13834.8C1074.51 13701.7 1061.71 13354.8 1052.84 13135.8C1043.77 12917.2 913.282 11969.4 997.25 11999.9C1142.56 12052.4 1683.97 12015.4 1860.8 11970.1C1908.98 11957.7 1810.97 12888.8 1794.74 13060.6C1778.5 13232.4 1782.47 13527 1877.06 13711.8C1971.65 13896.7 988.508 14168.5 1042.74 13834.4L1042.55 13834.8Z" fill="#FFF9E8"/>
<path fill-rule="evenodd" clip-rule="evenodd" d="M1827.45 12347.8C1552.67 12381.8 1253.42 12388.7 927.086 12382.1C915.358 12203.4 912.719 12058.1 933.535 12024.1C950.318 12025.3 967.298 12026 984.771 12026.8C1168.68 12064.1 1645.2 12027.1 1820.75 11983.4L1832.69 11981.8C1849.71 11993.5 1842.42 12151.8 1826.76 12348.2L1827.45 12347.8Z" fill="#F4BF26"/>
<path fill-rule="evenodd" clip-rule="evenodd" d="M1839.3 12135C1565.17 12171.7 1245.5 12188.2 906.816 12165.2C906.736 12071.3 915.18 12014.3 936.648 12022.2C1086.12 12076.5 1644.88 12035 1827.64 11986.6C1840.29 11983.5 1842.72 12041.8 1839.3 12135Z" fill="#166A1F"/>
<path fill-rule="evenodd" clip-rule="evenodd" d="M2942.03 14002.8L3032.87 13994.8C3069.3 13991.6 3097.84 14018 3096.13 14053.4L3085.28 14274.8C3083.56 14310.1 3052.32 14341.7 3015.4 14344.8L2924.57 14352.8C2888.14 14356 2859.59 14329.5 2861.31 14294.2L2872.16 14072.8C2873.87 14037.4 2905.12 14005.8 2942.03 14002.8Z" fill="#F4BF26"/>
<path fill-rule="evenodd" clip-rule="evenodd" d="M2589.78 14017L2680.62 14009C2717.05 14005.9 2745.59 14032.3 2743.88 14067.6L2733.03 14289.1C2731.31 14324.4 2700.07 14356 2663.15 14359L2572.32 14367C2535.89 14370.2 2507.34 14343.8 2509.06 14308.5L2519.91 14087C2521.62 14051.7 2552.87 14020.1 2589.78 14017Z" fill="#F4BF26"/>
<path fill-rule="evenodd" clip-rule="evenodd" d="M1988.61 14040.7L2136.2 14028C2195.58 14022.5 2242.29 14065.7 2239.45 14123.2L2232.4 14267.3C2229.56 14324.7 2178.85 14375.7 2118.98 14381L1971.4 14393.8C1912.02 14399.2 1865.3 14356 1868.14 14298.6L1875.2 14154.5C1878.04 14097.1 1928.74 14046 1988.61 14040.7Z" fill="#F4BF26"/>
<path fill-rule="evenodd" clip-rule="evenodd" d="M1569.88 14057.3L1660.71 14049.3C1697.15 14046.1 1725.69 14072.5 1723.97 14107.9L1713.13 14329.3C1711.41 14364.6 1680.16 14396.2 1643.25 14399.3L1552.41 14407.3C1515.98 14410.5 1487.44 14384 1489.16 14348.7L1500 14127.3C1501.72 14091.9 1532.97 14060.3 1569.88 14057.3Z" fill="#F4BF26"/>
<path fill-rule="evenodd" clip-rule="evenodd" d="M1217.73 14071L1308.57 14063C1345 14059.8 1373.55 14086.3 1371.83 14121.6L1360.98 14343C1359.26 14378.4 1328.02 14410 1291.1 14413L1200.26 14421C1163.83 14424.2 1135.28 14397.8 1136.52 14362.3L1147.37 14140.9C1149.08 14105.5 1180.33 14073.9 1217.24 14070.9L1217.73 14071Z" fill="#F4BF26"/>
<path fill-rule="evenodd" clip-rule="evenodd" d="M1145.91 13564.5C1088.07 13569.6 1025.86 13792.3 988.343 14008.6C950.827 14225 1040.14 14353.7 1160.99 14367.9C1281.34 14382 1528.65 14344.3 1676.31 14309C1823.98 14273.8 2263.86 14293.2 2423.21 14279.4C2579.69 14266.1 3273.28 14312.3 3286.27 13934.4C3291.28 13784.9 2906.42 13774.7 2820.87 13750.6C2734.83 13726.4 2375.48 13580.9 2253.86 13521.3C2132.45 13461.2 2002.92 13381.5 1913.38 13433.2C1824.04 13484.4 1607.3 13736.3 1423.14 13752.5C1238.98 13768.6 1204.06 13560 1146.41 13564.6L1145.91 13564.5Z" fill="#F4BF26"/>
<path fill-rule="evenodd" clip-rule="evenodd" d="M1130.5 13514.7C1072.16 13519.7 1009.27 13745.5 970.578 13964.9C932.578 14183.9 1023.47 14314.1 1145.3 14328.5C1307.14 14347.3 2207.07 14257.3 2423.56 14238.8C2582.4 14225 3282.18 14275.9 3283.57 13898.7C3283.87 13764.1 2912.95 13727.9 2826.12 13703C2739.09 13678.6 2375.01 13531.4 2251.82 13470.3C2129.12 13409.3 1997.13 13329.1 1906.91 13381.2C1816.19 13433.2 1596.6 13688.2 1410.27 13704.4C1223.95 13720.6 1188.53 13509.1 1129.7 13514L1130.5 13514.7Z" fill="#01567D"/>
<path d="M1670.93 14020C1763.31 13893 1889.47 13741.1 2044.43 13647.9L2114.28 13679.2C1967.77 13754.7 1853.19 13936 1770.8 14046.7C1737.29 14038.8 1703.97 14030.5 1670.93 14020Z" fill="#F4BF26"/>
<path d="M1483.78 13933.4C1593.6 13800.3 1780.09 13640.3 1902.37 13584.1L1980.19 13618.9C1850.78 13669.1 1672.8 13842.3 1566.86 13987.1C1536.9 13971 1508.66 13953.2 1483.78 13933.4Z" fill="#F4BF26"/>
<path fill-rule="evenodd" clip-rule="evenodd" d="M1747.07 13503.8C1737.64 13475.4 1745.44 13442 1775 13409.4C1809.94 13371.2 1830.01 13350.8 1895.83 13395.1C1885.92 13397.6 1875.91 13401.6 1866.97 13407C1838.51 13423.3 1796.63 13460.4 1747.07 13503.8Z" fill="#01567D"/>
<path d="M2502.09 13705.4C2494.23 13718.7 2479.22 13723.5 2468.07 13716.9C2468.07 13716.9 2467.06 13716.7 2466.56 13716.5C2457.91 13710.6 2454.85 13698.6 2457.5 13687.5C2459.45 13676.8 2460.6 13665.3 2460.14 13652.3C2459.57 13638.1 2457.39 13622.5 2452.29 13604.4C2448.01 13590 2455.75 13572.8 2469.15 13566.4C2482.55 13560.1 2496.61 13566.3 2500.89 13580.7C2504.67 13595.1 2507.64 13608.7 2509.3 13621.4C2521.28 13610.2 2535.06 13600.1 2550.15 13590.8C2563.14 13582.7 2577.6 13587.8 2583.28 13601.5C2588.45 13615 2582.53 13633.2 2569.73 13640.8C2555.34 13649.7 2542.56 13660.1 2531.99 13670.5C2519.62 13682.7 2509.76 13695.5 2502.89 13706.2L2502.09 13705.4ZM2174.13 13450.7L2176.7 13444C2179.58 13438 2184.96 13432.6 2191.06 13429.5C2204.46 13423.2 2218.52 13429.4 2222.8 13443.8C2226.58 13458.2 2229.55 13471.8 2231.22 13484.5C2243.19 13473.3 2256.97 13463.2 2272.06 13453.9C2285.05 13445.8 2299.51 13450.9 2305.19 13464.6C2310.37 13478.2 2304.44 13496.4 2291.65 13503.9C2277.26 13512.8 2264.48 13523.2 2253.9 13533.6C2241.53 13545.8 2231.67 13558.6 2224.81 13569.3C2216.95 13582.5 2201.94 13587.3 2190.78 13580.8C2190.78 13580.8 2189.78 13580.5 2189.28 13580.4C2180.63 13574.4 2177.57 13562.5 2180.22 13551.3C2182.17 13540.6 2183.32 13529.1 2182.86 13516.1C2182.29 13502 2180.11 13486.3 2175.01 13468.3C2173.28 13462.8 2173.45 13456.7 2175.13 13451L2174.13 13450.7ZM2176.9 13443.5C2176.9 13443.5 2178.48 13439.4 2179.47 13436.9L2176.9 13443.5ZM2347.78 13631.1C2354.14 13620.3 2363.81 13608 2376.88 13595.4C2387.45 13585.1 2400.23 13574.7 2414.62 13565.8C2427.61 13557.7 2433.84 13540.1 2428.17 13526.4C2423.19 13512.3 2408.03 13507.6 2395.04 13515.7C2379.95 13525 2366.67 13535.3 2354.19 13546.3C2352.53 13533.6 2350.06 13520.1 2345.78 13505.6C2341.5 13491.2 2327.64 13484.5 2314.04 13491.4C2300.64 13497.7 2293.4 13515 2297.18 13529.4C2302.28 13547.4 2304.46 13563 2305.03 13577.2C2305.49 13590.2 2304.34 13601.7 2302.39 13612.4C2299.74 13623.5 2302.8 13635.5 2311.45 13641.5C2311.45 13641.5 2312.45 13641.7 2312.95 13641.8C2324.11 13648.4 2339.12 13643.6 2346.98 13630.3L2347.78 13631.1ZM2630.61 13774.1C2622.75 13787.4 2607.74 13792.2 2596.59 13785.6C2596.59 13785.6 2595.58 13785.4 2595.08 13785.3C2586.43 13779.3 2583.37 13767.4 2586.02 13756.2C2587.97 13745.5 2589.12 13734 2588.66 13721C2588.09 13706.9 2585.91 13691.2 2580.81 13673.2C2576.53 13658.7 2584.27 13641.5 2597.67 13635.2C2611.07 13628.8 2625.13 13635 2629.41 13649.5C2633.19 13663.8 2636.16 13677.4 2637.82 13690.1C2649.8 13679 2663.58 13668.8 2678.67 13659.5C2691.66 13651.4 2706.12 13656.5 2711.8 13670.2C2716.97 13683.8 2711.05 13702 2698.25 13709.6C2683.86 13718.5 2671.08 13728.9 2660.51 13739.2C2648.14 13751.4 2638.28 13764.2 2631.41 13774.9L2630.61 13774.1ZM2179.47 13436.9L2176.9 13443.5C2174.22 13449.1 2170.23 13453.7 2165.14 13457C2150.05 13466.3 2137.46 13476.2 2126.89 13486.5C2115.42 13497.8 2106.35 13508.5 2100.18 13518.8C2092.33 13532.1 2077.32 13536.9 2066.16 13530.3C2066.16 13530.3 2065.16 13530.1 2064.65 13530C2056.01 13524 2052.94 13512 2055.6 13500.9C2057.55 13490.2 2058.7 13478.7 2058.23 13465.7C2057.66 13451.5 2055.49 13435.9 2050.39 13417.9C2046.11 13403.4 2053.84 13386.2 2067.24 13379.9C2080.64 13373.5 2094.71 13379.7 2098.98 13394.1C2103.07 13409.1 2106.04 13422.7 2107.5 13436C2118.88 13426.3 2131.97 13416.6 2146.36 13407.7C2159.35 13399.6 2173.81 13404.7 2179.48 13418.4C2182.02 13424.6 2182.15 13431.3 2180.08 13438.1L2179.47 13436.9ZM2176.5 13444.6C2176.5 13444.6 2174.92 13448.7 2173.93 13451.2L2176.5 13444.6ZM1956.56 13477.9C1962.73 13467.6 1974.49 13454.1 1989.76 13441.5C2002.54 13431.1 2016.83 13421.1 2031.73 13415.1C2045.44 13409.4 2053.98 13392.9 2050.9 13378.2C2047.82 13363.5 2034.35 13355.8 2020.85 13360.9C2000.04 13369.4 1980.36 13382.1 1963.99 13396.1C1943.02 13413.6 1926.18 13433.1 1916.83 13448.8C1908.28 13462.4 1910.67 13480.4 1921.43 13488C1932.49 13496.2 1948.2 13491 1956.76 13477.3L1956.56 13477.9Z" fill="#F4BF26"/>
<path d="M1880.64 14064.2C1979 13930.1 2047.1 13808.3 2185.67 13712.1L2243.11 13735.2C2111.54 13824 2059.96 13971.4 1979.97 14090.3C1946.7 14082.5 1913.63 14074.1 1880.83 14063.7L1880.64 14064.2Z" fill="#F4BF26"/>
<path fill-rule="evenodd" clip-rule="evenodd" d="M963.174 10450.5C882.206 10073.9 774.27 8470.44 754.071 7998.12C734.197 7526.2 1852.68 7440.32 1920.51 8025.27C1988.35 8610.23 2028.18 10059 1974.72 10324.2C1921.26 10589.4 995.733 11224.2 963.619 10450.3L963.174 10450.5Z" fill="#DBA87E"/>
<path fill-rule="evenodd" clip-rule="evenodd" d="M433.057 6426.26L2096.37 6398.57L2091.31 10437.3L601.115 10324.6L433.057 6426.26Z" fill="#01567D"/>
</g>
<defs>
<clipPath id="clip0_833_81676">
<rect width="3400" height="14669.7" fill="white"/>
</clipPath>
</defs>
</svg>
