<?xml version="1.0" standalone="no"?>
<!DOCTYPE svg PUBLIC "-//W3C//DTD SVG 20010904//EN"
 "http://www.w3.org/TR/2001/REC-SVG-20010904/DTD/svg10.dtd">
<svg version="1.0" xmlns="http://www.w3.org/2000/svg"
 width="113.000000pt" height="116.000000pt" viewBox="0 0 113.000000 116.000000"
 preserveAspectRatio="xMidYMid meet">

<g transform="translate(0.000000,116.000000) scale(0.100000,-0.100000)"
fill="#000000" stroke="none">
<path d="M82 1028 l-81 -121 242 -154 c133 -84 245 -153 249 -153 8 0 168 192
168 202 0 9 -476 348 -488 348 -5 0 -45 -55 -90 -122z"/>
<path d="M643 477 c-80 -22 -99 -43 -30 -34 60 8 120 30 125 45 5 15 -6 14
-95 -11z"/>
<path d="M819 238 c0 -2 -2 -11 -4 -22 -8 -43 -73 -84 -90 -56 -3 6 -13 10
-22 10 -13 0 -14 -8 -8 -47 8 -60 29 -93 58 -93 25 0 259 71 320 97 95 41 56
107 -48 83 -22 -5 -42 -6 -45 -2 -3 4 -17 7 -32 7 -16 -1 -28 2 -28 5 0 3 -18
6 -40 5 -22 -1 -40 3 -40 7 0 7 -19 12 -21 6z m57 -46 c8 -5 5 -20 -9 -52 -13
-30 -21 -39 -24 -28 -2 9 4 32 13 50 14 27 14 31 2 20 -9 -7 -21 -26 -28 -42
-12 -30 -30 -41 -30 -19 0 19 41 79 53 79 7 0 17 -4 23 -8z m40 -18 c-3 -9 -9
-27 -12 -40 -7 -26 -24 -33 -24 -9 0 21 22 65 33 65 5 0 6 -7 3 -16z"/>
</g>
</svg>
