<svg width="390" height="170" viewBox="0 0 390 170" fill="none" xmlns="http://www.w3.org/2000/svg">
<path fill-rule="evenodd" clip-rule="evenodd" d="M394.482 174.099C395.302 177.301 395.75 180.578 395.75 183.928C395.75 221.086 342.896 251.245 277.668 251.245C250.012 251.245 224.554 245.809 204.427 236.724C179.976 247.559 149.263 254 115.903 254C36.139 254 -28.5298 217.14 -28.5298 171.679C-28.5298 165.126 -27.188 158.722 -24.6161 152.616C-44.11 140.59 -56 124.468 -56 106.82C-56 69.4758 -2.92334 39.2058 62.6027 39.2058C68.6037 39.2058 74.493 39.4664 80.233 39.9504C97.3787 16.494 137.932 0 185.306 0C225.076 0 260.038 11.6165 280.39 29.2647C287.621 28.6318 295.038 28.2967 302.567 28.2967C382.331 28.2967 447 65.1568 447 110.618C447 136.159 426.575 159.02 394.52 174.099H394.482Z" fill="#699A5A"/>
</svg>
